<svg width="48.000000" height="48.000000" viewBox="0 0 48 48" fill="none" xmlns="http://www.w3.org/2000/svg" xmlns:xlink="http://www.w3.org/1999/xlink">
	<desc>
			Created with Pixso.
	</desc>
	<defs>
		<clipPath id="clip3_146">
			<rect id="bi:envelope-fill" width="48.000000" height="48.000000" fill="white" fill-opacity="0"/>
		</clipPath>
	</defs>
	<rect id="bi:envelope-fill" width="48.000000" height="48.000000" fill="#FFFFFF" fill-opacity="0"/>
	<g clip-path="url(#clip3_146)">
		<path id="Vector" d="M3.13135 12.1466C3.396 10.9686 4.04639 9.91687 4.97632 9.16345C5.90625 8.41016 7.06055 7.99988 8.25 8L39.75 8C40.9395 7.99988 42.0938 8.41016 43.0237 9.16345C43.9536 9.91687 44.604 10.9686 44.8687 12.1466L24 25.104L3.13135 12.1466ZM3 15.192L3 34.136L18.2329 24.6479L3 15.192ZM20.7476 26.2134L3.50146 36.952C3.92749 37.8647 4.6001 38.6359 5.44067 39.1754C6.28125 39.715 7.25562 40.001 8.25 40L39.75 40C40.7441 40.0002 41.718 39.7136 42.5583 39.1736C43.3984 38.6335 44.0706 37.8622 44.4961 36.9493L27.2498 26.2107L24 28.2294L20.7476 26.2107L20.7476 26.2134ZM29.7671 24.6506L45 34.136L45 15.192L29.7671 24.6479L29.7671 24.6506Z" fill="#25282B" fill-opacity="1.000000" fill-rule="evenodd"/>
	</g>
</svg>
