<svg width="37.500000" height="37.500000" viewBox="0 0 37.5 37.5" fill="none" xmlns="http://www.w3.org/2000/svg" xmlns:xlink="http://www.w3.org/1999/xlink">
	<desc>
			Created with Pixso.
	</desc>
	<defs/>
	<path id="Vector" d="M24.75 18.75C24.75 19.9366 24.3982 21.0967 23.7388 22.0834C23.0796 23.0701 22.1426 23.8391 21.0461 24.2933C19.9497 24.7474 18.7434 24.8662 17.5793 24.6348C16.4155 24.4032 15.3464 23.8318 14.5073 22.9927C13.6682 22.1536 13.0967 21.0845 12.8652 19.9205C12.6338 18.7567 12.7527 17.5503 13.2068 16.4539C13.6609 15.3575 14.4299 14.4204 15.4165 13.7612C16.4033 13.1019 17.5632 12.75 18.75 12.75C20.3408 12.7518 21.8657 13.3845 22.9907 14.5094C24.1155 15.6342 24.748 17.1593 24.75 18.75ZM37.5 10.5L37.5 27C37.4968 29.7838 36.3896 32.4526 34.4211 34.4211C32.4526 36.3895 29.7837 37.4968 27 37.5L10.5 37.5C7.71631 37.4968 5.04736 36.3895 3.07886 34.4211C1.11035 32.4526 0.00317383 29.7838 0 27L0 10.5C0.00317383 7.71619 1.11035 5.04736 3.07886 3.07886C5.04736 1.11047 7.71631 0.00317383 10.5 0L27 0C29.7837 0.00317383 32.4526 1.11047 34.4211 3.07886C36.3896 5.04736 37.4968 7.71619 37.5 10.5ZM27.75 18.75C27.75 16.97 27.2222 15.2299 26.2332 13.7499C25.2444 12.2698 23.8386 11.1163 22.1941 10.4351C20.5496 9.75391 18.74 9.57568 16.9941 9.92297C15.2483 10.2701 13.6448 11.1273 12.386 12.386C11.1274 13.6447 10.2703 15.2484 9.92285 16.9941C9.57568 18.74 9.75391 20.5496 10.4351 22.1941C11.1162 23.8386 12.2698 25.2443 13.7498 26.2333C15.23 27.2222 16.97 27.75 18.75 27.75C21.1362 27.7473 23.4238 26.7982 25.1111 25.111C26.7983 23.4237 27.7473 21.1361 27.75 18.75ZM30.75 9C30.75 8.55493 30.6179 8.12 30.3708 7.75C30.1235 7.38 29.7722 7.09155 29.3611 6.92126C28.95 6.75098 28.4976 6.70642 28.061 6.79321C27.6245 6.88 27.2236 7.09436 26.9089 7.40906C26.5942 7.72363 26.3801 8.12463 26.2932 8.56104C26.2063 8.99756 26.251 9.44995 26.4214 9.86108C26.5916 10.2722 26.8799 10.6235 27.25 10.8708C27.6199 11.118 28.0549 11.25 28.5 11.25C29.0967 11.25 29.6689 11.0129 30.0911 10.5909C30.5129 10.1691 30.75 9.59668 30.75 9Z" fill="#25282B" fill-opacity="1.000000" fill-rule="nonzero"/>
</svg>
