<svg width="38.000000" height="38.000000" viewBox="0 0 38 38" fill="none" xmlns="http://www.w3.org/2000/svg" xmlns:xlink="http://www.w3.org/1999/xlink">
	<desc>
			Created with Pixso.
	</desc>
	<defs/>
	<path id="Vector" d="M0 2.7218C0 1.21838 1.24927 0 2.79053 0L35.2095 0C36.7507 0 38 1.21838 38 2.7218L38 35.2782C38 36.7816 36.7507 38 35.2095 38L2.79053 38C1.24927 38 0 36.7816 0 35.2782L0 2.7218ZM11.7397 31.8108L11.7397 14.6514L6.03735 14.6514L6.03735 31.8108L11.7397 31.8108ZM8.88965 12.3073C10.8774 12.3073 12.115 10.9915 12.115 9.34326C12.0793 7.65942 10.8799 6.37927 8.92773 6.37927C6.97534 6.37927 5.69995 7.66174 5.69995 9.34326C5.69995 10.9915 6.93726 12.3073 8.85156 12.3073L8.88965 12.3073ZM20.5461 31.8108L20.5461 22.2277C20.5461 21.7146 20.5842 21.2017 20.7361 20.8358C21.147 19.8123 22.0852 18.7506 23.6621 18.7506C25.7261 18.7506 26.55 20.3229 26.55 22.6313L26.55 31.8108L32.2524 31.8108L32.2524 21.9688C32.2524 16.6963 29.4404 14.2452 25.688 14.2452C22.6624 14.2452 21.3062 15.9077 20.5461 17.0786L20.5461 17.1379L20.5081 17.1379C20.5208 17.1182 20.5334 17.0984 20.5461 17.0786L20.5461 14.6514L14.8462 14.6514C14.9175 16.2616 14.8462 31.8108 14.8462 31.8108L20.5461 31.8108Z" fill="#25282B" fill-opacity="1.000000" fill-rule="nonzero"/>
</svg>
